<svg aria-hidden="true" style="position: absolute; width: 0; height: 0; overflow: hidden;" version="1.1" xmlns="http://www.w3.org/2000/svg" xmlns:xlink="http://www.w3.org/1999/xlink">
<defs>
<symbol id="car" viewBox="0 0 32 32">
<path fill="#fff" style="fill: var(--color1, #fff)" d="M1.759 20.967c-0.144-0.372-0.225-0.773-0.225-1.195 0-1.835 1.493-3.327 3.328-3.327s3.327 1.493 3.327 3.327c0 0.452-0.091 0.884-0.256 1.278l16.876-0.957c-0.010-0.105-0.016-0.212-0.016-0.32 0-1.835 1.493-3.327 3.328-3.327 1.816 0 3.294 1.463 3.324 3.272l0.347-0.020c0.689-2.499-0.56-3.317-0.56-3.317 0.345-2.8-1.421-3.403-1.421-3.403-0.517-1.163-2.025-2.843-2.025-2.843 1.723-1.163-1.249-0.474-1.249-0.474-3.919-0.517-12.836-0.129-13.869 0.388s-4.135 3.36-4.135 3.36c-8.701 0.646-8.012 3.791-8.012 3.791-0.947 0.172-0.388 1.637-0.013 3.017 0.1 0.368 0.588 0.603 1.25 0.751z"></path>
<path fill="#fff" style="fill: var(--color1, #fff)" d="M4.861 16.962c-1.552 0-2.811 1.258-2.811 2.811 0 0.471 0.117 0.914 0.322 1.304 0.471 0.895 1.408 1.507 2.489 1.507 1.079 0 2.014-0.608 2.485-1.5 0.207-0.391 0.325-0.837 0.325-1.311 0.001-1.552-1.258-2.81-2.81-2.81z"></path>
<path fill="#fff" style="fill: var(--color1, #fff)" d="M28.121 16.962c-1.552 0-2.811 1.258-2.811 2.811 0 0.098 0.005 0.195 0.015 0.292 0.146 1.415 1.342 2.519 2.796 2.519 1.553 0 2.811-1.258 2.811-2.811 0-0.009-0.001-0.018-0.002-0.026-0.014-1.54-1.266-2.784-2.809-2.784z"></path>
</symbol>
<symbol id="city" viewBox="0 0 32 32">
<path fill="#fff" style="fill: var(--color1, #fff)" d="M23.526 20.247h-0.694v4.147c0.172-0.070 0.35-0.119 0.531-0.158v-2.461c0.961-0.243 1.733-0.955 2.059-1.879-0.375-0.163-0.722-0.379-1.031-0.638-0.079 0.469-0.313 0.989-0.865 0.989z"></path>
<path fill="#fff" style="fill: var(--color1, #fff)" d="M21.77 21.74v2.322c0.189 0.117 0.367 0.252 0.531 0.405v-4.751h-0.395c-0.052 0-0.093-0.008-0.136-0.014-0.22-0.031-0.35-0.13-0.419-0.218-0.141-0.18-0.126-0.394-0.111-0.483v-0.878c0-0.147 0.119-0.265 0.265-0.265s0.265 0.119 0.265 0.265l-0.008 0.98c-0.004 0.021-0.001 0.082 0.007 0.082h0.001c0.006 0 0.044 0 0.137 0h0.394v-1.062c0-0.037 0.007-0.072 0.021-0.104 0.040-0.095 0.134-0.162 0.245-0.162 0.147 0 0.265 0.119 0.265 0.265v1.593h0.694c0.302 0 0.368-0.668 0.368-0.834v-0.117c-0.213-0.247-0.398-0.519-0.55-0.81-0.054-0.104-0.106-0.21-0.152-0.319-0.212-0.505-0.329-1.059-0.329-1.639 0-0.011 0.002-0.022 0.002-0.033-0.076-0.006-0.152-0.012-0.229-0.012-1.634 0-2.959 1.325-2.959 2.958-0.001 1.333 0.881 2.459 2.093 2.829z"></path>
<path fill="#fff" style="fill: var(--color1, #fff)" d="M8.649 25.443c0.618-0.739 1.54-1.151 2.535-1.151 0.564 0 1.095 0.149 1.559 0.408v-20.381h-5.841v19.948c0.691 0.197 1.303 0.614 1.746 1.177zM8.496 21.309h0.531v1.062h-0.531v-1.062zM8.496 19.716h0.531v1.062h-0.531v-1.062zM8.496 18.124h0.531v1.062h-0.531v-1.062zM8.496 16.531h0.531v1.062h-0.531v-1.062zM8.496 14.938h0.531v1.062h-0.531v-1.062zM8.496 13.345h0.531v1.062h-0.531v-1.062zM8.496 11.752h0.531v1.062h-0.531v-1.062zM8.496 10.159h0.531v1.062h-0.531v-1.062zM8.496 8.566h0.531v1.062h-0.531v-1.062zM11.15 9.628h-0.531v-1.062h0.531v1.062zM11.15 11.221h-0.531v-1.062h0.531v1.062zM11.15 12.814h-0.531v-1.062h0.531v1.062zM11.15 14.407h-0.531v-1.062h0.531v1.062zM11.15 16h-0.531v-1.062h0.531v1.062zM11.15 17.593h-0.531v-1.062h0.531v1.062zM11.15 19.186h-0.531v-1.062h0.531v1.062zM11.15 20.778h-0.531v-1.062h0.531v1.062zM11.15 22.371h-0.531v-1.062h0.531v1.062zM9.557 21.309h0.531v1.062h-0.531v-1.062zM9.557 19.716h0.531v1.062h-0.531v-1.062zM9.557 18.124h0.531v1.062h-0.531v-1.062zM9.557 16.531h0.531v1.062h-0.531v-1.062zM9.557 14.938h0.531v1.062h-0.531v-1.062zM9.557 13.345h0.531v1.062h-0.531v-1.062zM9.557 11.752h0.531v1.062h-0.531v-1.062zM9.557 10.159h0.531v1.062h-0.531v-1.062zM10.088 9.628h-0.531v-1.062h0.531v1.062zM11.15 6.442v1.593h-0.531v-1.593h0.531zM10.088 6.442v1.593h-0.531v-1.593h0.531zM8.496 6.442h0.531v1.593h-0.531v-1.593z"></path>
<path fill="#fff" style="fill: var(--color1, #fff)" d="M2.876 26.91c0-0.832 0.333-1.479 0.841-1.94 0.161-0.146 0.339-0.273 0.531-0.38 0.059-0.033 0.118-0.064 0.179-0.094h-0.179v-1.062h1.062v0.775c0.235-0.045 0.475-0.070 0.714-0.070 0.117 0 0.233 0.008 0.348 0.021v-8.16h-6.372v11.681h2.941l-0.005-0.038c-0.041-0.224-0.059-0.547-0.059-0.734zM1.062 21.84h1.062v1.062h-1.062v-1.062zM1.062 20.247h1.062v1.062h-1.062v-1.062zM1.062 18.655h1.062v1.062h-1.062v-1.062zM3.717 19.716h-1.062v-1.062h1.062v1.062zM3.717 21.309h-1.062v-1.062h1.062v1.062zM2.655 21.84h1.062v1.062h-1.062v-1.062zM5.31 22.902h-1.062v-1.062h1.062v1.062zM5.31 21.309h-1.062v-1.062h1.062v1.062zM5.31 19.716h-1.062v-1.062h1.062v1.062zM5.31 18.124h-1.062v-1.062h1.062v1.062zM3.717 18.124h-1.062v-1.062h1.062v1.062zM1.062 17.062h1.062v1.062h-1.062v-1.062zM1.062 23.433h1.062v1.062h-1.062v-1.062zM2.655 23.433h1.062v1.062h-1.062v-1.062z"></path>
<path fill="#fff" style="fill: var(--color1, #fff)" d="M14.477 27.526l0.005 0.155h2.263l-0.005-0.038c-0.041-0.224-0.059-0.547-0.059-0.734 0-1.328 0.779-2.475 1.903-3.016v-11.079h-5.31v12.254c0.702 0.595 1.162 1.477 1.203 2.458zM17.522 20.778h-0.531v-0.531h0.531v0.531zM15.398 20.247h1.062v0.531h-1.062v-0.531zM15.398 18.655h1.062v1.062h-1.062v-1.062zM15.398 17.062h1.062v1.062h-1.062v-1.062zM15.398 15.469h1.062v1.062h-1.062v-1.062zM17.522 16.531h-0.531v-1.062h0.531v1.062zM17.522 18.124h-0.531v-1.062h0.531v1.062zM17.522 19.716h-0.531v-1.062h0.531v1.062zM17.522 14.938h-0.531v-1.062h0.531v1.062zM16.46 14.938h-1.062v-1.062h1.062v1.062zM14.336 13.876h0.531v1.062h-0.531v-1.062zM14.336 15.469h0.531v1.062h-0.531v-1.062zM14.336 17.062h0.531v1.062h-0.531v-1.062zM14.336 18.655h0.531v1.062h-0.531v-1.062zM14.336 20.247h0.531v0.531h-0.531v-0.531zM14.336 21.309h3.186v0.531h-3.186v-0.531h0zM14.336 22.371h3.186v0.531h-3.186v-0.531zM14.336 23.433h3.186v0.531h-3.186v-0.531z"></path>
<path fill="#fff" style="fill: var(--color1, #fff)" d="M23.894 17.855c0.149 0.258 0.327 0.495 0.531 0.709 0.321 0.336 0.703 0.611 1.129 0.808 0.311 0.144 0.645 0.245 0.995 0.299v5.597c0.052 0.057 0.105 0.113 0.153 0.174 0.115-0.138 0.243-0.26 0.378-0.374v-8.007h-0.73c-0.633 0-0.863-0.55-0.863-0.92v-1.204c0-0.147 0.119-0.265 0.265-0.265s0.265 0.119 0.265 0.265v1.204c0.002 0.090 0.030 0.389 0.332 0.389h0.73v-1.593c0-0.037 0.008-0.072 0.021-0.104 0.040-0.095 0.134-0.162 0.245-0.162 0.147 0 0.265 0.119 0.265 0.265v3.186h0.625c0.118 0 0.204-0.033 0.27-0.105 0.17-0.185 0.179-0.575 0.168-0.697l-0.001-1.322c0-0.147 0.119-0.265 0.265-0.265s0.265 0.119 0.265 0.265v1.299c0.005 0.049 0.048 0.692-0.307 1.079-0.167 0.181-0.395 0.277-0.661 0.277h-0.625v6.049c0.169-0.093 0.346-0.173 0.531-0.235v-4.896c1.556-0.446 2.696-1.876 2.696-3.575 0-2.055-1.666-3.722-3.722-3.722s-3.722 1.666-3.722 3.722c0 0.020 0.003 0.038 0.003 0.058 0.010 0.655 0.19 1.268 0.497 1.8z"></path>
<path fill="#fff" style="fill: var(--color1, #fff)" d="M13.274 27.681h0.673c-0.027-0.695-0.281-1.306-0.673-1.784-0.157-0.192-0.331-0.365-0.531-0.507-0.444-0.315-0.979-0.501-1.559-0.501-1.143 0-2.124 0.56-2.549 1.547-0.309-0.766-0.944-1.364-1.733-1.624-0.17-0.056-0.348-0.093-0.531-0.116-0.114-0.014-0.229-0.027-0.348-0.027-0.607 0-1.27 0.21-1.776 0.617-0.101 0.082-0.195 0.173-0.282 0.27-0.338 0.379-0.559 0.874-0.559 1.485 0 0.173 0.021 0.108 0.051 0.639l9.816 0z"></path>
<path fill="#fff" style="fill: var(--color1, #fff)" d="M29.237 24.889c-0.39 0-0.759 0.070-1.095 0.195-0.189 0.070-0.366 0.159-0.531 0.266-0.198 0.129-0.378 0.281-0.531 0.461-0.157 0.184-0.291 0.391-0.391 0.625-0.040-0.098-0.090-0.191-0.14-0.284-0.476-0.881-1.4-1.483-2.472-1.483-0.249 0-0.486 0.043-0.714 0.106-0.185 0.050-0.363 0.117-0.531 0.203-0.176 0.090-0.346 0.191-0.5 0.313-0.010-0.013-0.021-0.026-0.031-0.039-0.151-0.207-0.331-0.39-0.531-0.549-0.479-0.38-1.081-0.612-1.739-0.612-0.529 0-1.023 0.164-1.446 0.439-0.821 0.532-1.372 1.486-1.372 2.513 0 0.173 0.021 0.108 0.051 0.639h14.737c-0.061-1.593-1.27-2.792-2.763-2.792z"></path>
</symbol>
<symbol id="coins" viewBox="0 0 32 32">
<path fill="#fff" style="fill: var(--color1, #fff)" d="M10.4 1.6c-5.744 0-10.4 4.656-10.4 10.4v0c0 5.744 4.656 10.4 10.4 10.4v0c5.744 0 10.4-4.656 10.4-10.4v0c0-5.744-4.656-10.4-10.4-10.4v0zM10.4 3.2c4.86 0 8.8 3.94 8.8 8.8v0c0 4.86-3.94 8.8-8.8 8.8v0c-4.86 0-8.8-3.94-8.8-8.8v0c0-4.86 3.94-8.8 8.8-8.8v0zM9.6 6.4v1.6c-1.316 0-2.4 1.084-2.4 2.4s1.084 2.4 2.4 2.4h1.6c0.451 0 0.8 0.349 0.8 0.8s-0.349 0.8-0.8 0.8h-4v1.6h2.4v1.6h1.6v-1.6c1.316 0 2.4-1.084 2.4-2.4s-1.084-2.4-2.4-2.4h-1.6c-0.451 0-0.8-0.349-0.8-0.8s0.349-0.8 0.8-0.8h4v-1.6h-2.4v-1.6h-1.6zM22.163 9.628c0.106 0.525 0.165 1.065 0.2 1.613 4.502 0.387 8.037 4.157 8.037 8.759 0 4.86-3.94 8.8-8.8 8.8-3.591 0-6.675-2.154-8.044-5.238-0.52 0.143-1.052 0.254-1.597 0.325 1.541 3.816 5.273 6.512 9.641 6.512 5.744 0 10.4-4.656 10.4-10.4 0-5.554-4.357-10.078-9.837-10.372zM22.159 14.4c-0.232 1.133-0.632 2.207-1.159 3.2h3.8v-1.6h-2.4v-1.6h-0.241zM20.191 18.909c-0.31 0.437-0.652 0.849-1.016 1.241 0.429 0.399 0.999 0.65 1.625 0.65h1.6c0.451 0 0.8 0.349 0.8 0.8s-0.349 0.8-0.8 0.8h-4v1.6h2.4v1.6h1.6v-1.6c1.316 0 2.4-1.084 2.4-2.4s-1.084-2.4-2.4-2.4h-1.6c-0.252 0-0.464-0.116-0.609-0.291z"></path>
</symbol>
<symbol id="locations" viewBox="0 0 32 32">
<path fill="#fff" style="fill: var(--color1, #fff)" d="M27.5 12.7c-1.4-5.1-6.2-8.7-11.5-8.7-1.1 0-2.1 0.1-3.2 0.4-1-1.4-2.8-2.4-4.8-2.4-3.3 0-6 2.6-6 5.9 0 4.8 5.2 8.8 5.4 8.9s0.4 0.2 0.6 0.2 0.4-0.1 0.6-0.2c0.2-0.2 5.4-4.1 5.4-8.9 0-0.6-0.1-1.1-0.2-1.6 0.7-0.2 1.4-0.3 2.2-0.3 4.5 0 8.4 3 9.6 7.3 0.1 0.4 0.5 0.7 1 0.7 0.1 0 0.2 0 0.3 0 0.5-0.2 0.8-0.7 0.6-1.3zM8 9.8c-1.1 0-2-0.9-2-2s0.9-2 2-2 2 0.9 2 2-0.9 2-2 2z"></path>
<path fill="#fff" style="fill: var(--color1, #fff)" d="M24 15c-3.3 0-6 2.6-6 5.9 0 1.6 0.6 3.2 1.4 4.5-1.1 0.4-2.2 0.6-3.4 0.6-4.5 0-8.4-3-9.6-7.3-0.1-0.5-0.7-0.8-1.2-0.7-0.5 0.2-0.8 0.7-0.7 1.2 1.4 5.2 6.2 8.8 11.5 8.8 1.6 0 3.2-0.3 4.6-0.9 1.3 1.6 2.7 2.7 2.8 2.7 0.2 0.1 0.4 0.2 0.6 0.2s0.4-0.1 0.6-0.2c0.2-0.2 5.4-4.1 5.4-8.9 0-3.3-2.7-5.9-6-5.9zM24 22.8c-1.1 0-2-0.9-2-2s0.9-2 2-2 2 0.9 2 2-0.9 2-2 2z"></path>
</symbol>
<symbol id="logo" viewBox="0 0 32 32">
<path fill="#fff" style="fill: var(--color1, #fff)" d="M1 12h3c0.4 0 0.7-0.2 0.9-0.5l1.3-2.1c0.8-1.5 2.5-2.4 4.2-2.4h7.2c1.7 0 3.4 0.9 4.3 2.4l1.3 2.1c0.2 0.3 0.5 0.5 0.9 0.5h3c0.6 0 1-0.4 1-1s-0.4-1-1-1h-2.4l-1-1.6c-1.4-2.1-3.7-3.4-6.1-3.4h-7.2c-2.4 0-4.7 1.3-6 3.4l-1 1.6h-2.4c-0.6 0-1 0.4-1 1s0.4 1 1 1z"></path>
<path fill="#fff" style="fill: var(--color1, #fff)" d="M5.9 18.5c0.1-0.2 0.2-0.3 0.2-0.5h-6.1v1h4.8c0.5 0 0.8-0.2 1.1-0.5z"></path>
<path fill="#fff" style="fill: var(--color1, #fff)" d="M22.1 18.5c0.2 0.3 0.6 0.5 1 0.5h4.9v-1h-6.1c0 0.2 0.1 0.3 0.2 0.5z"></path>
<path fill="#fff" style="fill: var(--color1, #fff)" d="M25.5 15c-3.6 0-6.5 3-6.5 6.6 0 5.4 5.6 10 5.9 10.2 0.2 0.1 0.4 0.2 0.6 0.2s0.4-0.1 0.6-0.2c0.3-0.2 5.9-4.8 5.9-10.2 0-3.6-2.9-6.6-6.5-6.6zM25.5 24c-1.4 0-2.5-1.1-2.5-2.5s1.1-2.5 2.5-2.5 2.5 1.1 2.5 2.5-1.1 2.5-2.5 2.5z"></path>
<path fill="#fff" style="fill: var(--color1, #fff)" d="M17 21.6c0-0.2 0-0.4 0-0.6 0 0 0 0 0 0h-6c-0.6 0-1-0.4-1-1s0.4-1 1-1h6c0.1 0 0.3 0 0.4 0.1 0.9-3.1 3.5-5.4 6.7-5.9-0.4-0.1-0.7-0.2-1.1-0.2h-18c-2 0-3.8 1.2-4.6 3h7.6c0.6 0 1 0.4 1 1 0 0.5-0.4 0.9-0.9 1 0 0.6-0.3 1.1-0.6 1.6-0.6 0.9-1.6 1.4-2.7 1.4h-4.8v4c0 1.7 1.3 3 3 3h2c1.7 0 3-1.3 3-3v-1h9.3c-0.2-0.8-0.3-1.6-0.3-2.4z"></path>
</symbol>
<symbol id="mountains" viewBox="0 0 32 32">
<path fill="#fff" style="fill: var(--color1, #fff)" d="M30.494 25.001l0.008-0.005-10.643-18.424c-0.234-0.481-0.723-0.815-1.294-0.815-0.586 0-1.088 0.351-1.314 0.852l-7.080 12.262-1.733-3.002-0.002 0.001c-0.124-0.253-0.381-0.43-0.683-0.43-0.308 0-0.573 0.185-0.692 0.449l-5.053 8.753h-0.023v0.039l-0.489 0.847c-0.057 0.074-0.091 0.166-0.091 0.266 0 0.244 0.198 0.443 0.442 0.443 0.049 0 0.094-0.010 0.138-0.024v0.029l27.84-0.016c0.432-0.035 0.772-0.392 0.772-0.832 0-0.143-0.039-0.276-0.102-0.394z"></path>
</symbol>
<symbol id="phone" viewBox="0 0 32 32">
<path fill="#fff" style="fill: var(--color1, #fff)" d="M13.383 7.088l0.865 1.551c0.781 1.399 0.467 3.235-0.763 4.465 0 0 0 0 0 0s-1.492 1.492 1.213 4.197c2.704 2.704 4.196 1.214 4.197 1.213 0 0 0 0 0 0 1.23-1.23 3.066-1.543 4.465-0.763l1.551 0.865c2.113 1.179 2.363 4.142 0.505 6-1.116 1.116-2.483 1.984-3.995 2.042-2.544 0.097-6.865-0.547-11.199-4.881s-4.978-8.655-4.882-11.199c0.057-1.511 0.926-2.878 2.042-3.994 1.857-1.857 4.82-1.608 6 0.505z"></path>
<path fill="#fff" style="fill: var(--color1, #fff)" d="M17.679 2.506c0.088-0.545 0.604-0.915 1.149-0.827 0.034 0.006 0.142 0.027 0.199 0.039 0.114 0.025 0.273 0.064 0.47 0.122 0.396 0.115 0.949 0.305 1.612 0.609 1.328 0.609 3.096 1.674 4.931 3.509s2.9 3.602 3.509 4.931c0.304 0.663 0.494 1.216 0.609 1.612 0.058 0.198 0.097 0.357 0.122 0.47 0.013 0.057 0.022 0.103 0.028 0.136l0.008 0.042c0.088 0.545-0.278 1.082-0.823 1.17-0.544 0.088-1.056-0.28-1.146-0.823-0.003-0.015-0.011-0.054-0.019-0.091-0.017-0.074-0.045-0.191-0.090-0.346-0.090-0.31-0.247-0.77-0.507-1.338-0.52-1.134-1.454-2.699-3.105-4.35s-3.216-2.585-4.35-3.105c-0.568-0.26-1.028-0.417-1.338-0.507-0.155-0.045-0.349-0.090-0.423-0.106-0.543-0.090-0.924-0.605-0.836-1.149z"></path>
<path fill="#fff" style="fill: var(--color1, #fff)" d="M17.981 7.106c0.152-0.531 0.705-0.839 1.236-0.687l-0.275 0.962c0.275-0.962 0.275-0.962 0.275-0.962l0.002 0.001 0.006 0.002 0.010 0.003 0.026 0.008c0.020 0.006 0.045 0.015 0.075 0.025 0.060 0.021 0.139 0.051 0.236 0.093 0.194 0.083 0.46 0.212 0.786 0.405 0.653 0.386 1.543 1.028 2.59 2.074s1.688 1.938 2.074 2.59c0.193 0.326 0.321 0.591 0.405 0.786 0.042 0.097 0.072 0.176 0.093 0.236 0.011 0.030 0.019 0.055 0.025 0.075l0.008 0.026 0.003 0.010 0.001 0.004 0.001 0.002c0 0 0.001 0.002-0.961 0.277l0.962-0.275c0.152 0.531-0.156 1.084-0.687 1.236-0.527 0.15-1.075-0.151-1.232-0.673l-0.005-0.014c-0.007-0.020-0.022-0.059-0.046-0.117-0.049-0.115-0.139-0.303-0.288-0.555-0.297-0.502-0.834-1.261-1.768-2.195s-1.692-1.47-2.195-1.768c-0.251-0.149-0.44-0.238-0.555-0.288-0.058-0.025-0.097-0.039-0.117-0.046l-0.014-0.005c-0.523-0.157-0.824-0.706-0.673-1.232z"></path>
</symbol>
<symbol id="plan" viewBox="0 0 32 32">
<path fill="#fff" style="fill: var(--color1, #fff)" d="M21.333 5.667c0 1.653-1.347 3-3 3h-4.667c-0.827 0-1.573-0.333-2.12-0.88s-0.88-1.293-0.88-2.12c0-1.653 1.347-3 3-3h4.667c0.827 0 1.573 0.333 2.12 0.88s0.88 1.293 0.88 2.12z"></path>
<path fill="#fff" style="fill: var(--color1, #fff)" d="M25.107 6.705c-0.307-0.253-0.653-0.453-1.027-0.6-0.387-0.147-0.773 0.16-0.853 0.56-0.453 2.28-2.467 4-4.893 4h-4.667c-1.333 0-2.587-0.52-3.533-1.467-0.693-0.693-1.173-1.573-1.36-2.52-0.080-0.4-0.48-0.72-0.867-0.56-1.547 0.627-2.573 2.040-2.573 4.88v13c0 4 2.387 5.333 5.333 5.333h10.667c2.947 0 5.333-1.333 5.333-5.333v-13c0-2.173-0.6-3.507-1.56-4.293zM10.667 16.332h5.333c0.547 0 1 0.453 1 1s-0.453 1-1 1h-5.333c-0.547 0-1-0.453-1-1s0.453-1 1-1zM21.333 23.665h-10.667c-0.547 0-1-0.453-1-1s0.453-1 1-1h10.667c0.547 0 1 0.453 1 1s-0.453 1-1 1z"></path>
</symbol>
<symbol id="service" viewBox="0 0 32 32">
<path fill="#fff" style="fill: var(--color1, #fff)" d="M19.648 16.528c5.447 1.63 9.349 6.595 9.352 12.472v0h-26c0.001-5.878 3.904-10.844 9.26-12.448l0.092-0.024 3.648 5.472 3.648-5.472zM22.5 9.5c0 3.59-2.91 6.5-6.5 6.5s-6.5-2.91-6.5-6.5v0c0-3.59 2.91-6.5 6.5-6.5s6.5 2.91 6.5 6.5v0z"></path>
</symbol>
<symbol id="update" viewBox="0 0 32 32">
<path fill="#fff" style="fill: var(--color1, #fff)" d="M19.648 16.528c5.447 1.63 9.349 6.595 9.352 12.472v0h-26c0.001-5.878 3.904-10.844 9.26-12.448l0.092-0.024 3.648 5.472 3.648-5.472zM22.5 9.5c0 3.59-2.91 6.5-6.5 6.5s-6.5-2.91-6.5-6.5v0c0-3.59 2.91-6.5 6.5-6.5s6.5 2.91 6.5 6.5v0z"></path>
</symbol>
<symbol id="whiteheart" viewBox="0 0 32 32">
<path fill="#fff" style="fill: var(--color1, #fff)" d="M2.667 12.183c0 6.484 5.359 9.939 9.282 13.032 1.384 1.091 2.718 2.119 4.051 2.119s2.667-1.027 4.051-2.119c3.923-3.093 9.282-6.548 9.282-13.032s-7.334-11.082-13.333-4.849c-6-6.234-13.333-1.635-13.333 4.849z"></path>
</symbol>
<symbol id="yellowheart" viewBox="0 0 32 32">
<path fill="#fdd926" style="fill: var(--color2, #fdd926)" d="M2.667 12.183c0 6.484 5.359 9.939 9.282 13.032 1.384 1.091 2.718 2.119 4.051 2.119s2.667-1.027 4.051-2.119c3.923-3.093 9.282-6.548 9.282-13.032s-7.334-11.082-13.333-4.849c-6-6.234-13.333-1.635-13.333 4.849z"></path>
</symbol>
</defs>
</svg>
