<!DOCTYPE svg PUBLIC "-//W3C//DTD SVG 1.1//EN" "http://www.w3.org/Graphics/SVG/1.1/DTD/svg11.dtd">
<!-- Uploaded to: SVG Repo, www.svgrepo.com, Transformed by: SVG Repo Mixer Tools -->
<svg version="1.1" id="Icons" xmlns="http://www.w3.org/2000/svg" xmlns:xlink="http://www.w3.org/1999/xlink" viewBox="0 0 32 32" xml:space="preserve" width="800px" height="800px" fill="#ffffff">
<g id="SVGRepo_bgCarrier" stroke-width="0"/>
<g id="SVGRepo_tracerCarrier" stroke-linecap="round" stroke-linejoin="round"/>
<g id="SVGRepo_iconCarrier"> <style type="text/css"> .st0{fill:none;stroke:#000000;stroke-width:2;stroke-linecap:round;stroke-linejoin:round;stroke-miterlimit:10;} </style> <path d="M27.5,12.7C26.1,7.6,21.3,4,16,4c-1.1,0-2.1,0.1-3.2,0.4C11.8,3,10,2,8,2C4.7,2,2,4.6,2,7.9c0,4.8,5.2,8.8,5.4,8.9 C7.6,16.9,7.8,17,8,17s0.4-0.1,0.6-0.2c0.2-0.2,5.4-4.1,5.4-8.9c0-0.6-0.1-1.1-0.2-1.6C14.5,6.1,15.2,6,16,6c4.5,0,8.4,3,9.6,7.3 c0.1,0.4,0.5,0.7,1,0.7c0.1,0,0.2,0,0.3,0C27.4,13.8,27.7,13.3,27.5,12.7z M8,9.8c-1.1,0-2-0.9-2-2s0.9-2,2-2s2,0.9,2,2 S9.1,9.8,8,9.8z"/> <path d="M24,15c-3.3,0-6,2.6-6,5.9c0,1.6,0.6,3.2,1.4,4.5C18.3,25.8,17.2,26,16,26c-4.5,0-8.4-3-9.6-7.3c-0.1-0.5-0.7-0.8-1.2-0.7 c-0.5,0.2-0.8,0.7-0.7,1.2C5.9,24.4,10.7,28,16,28c1.6,0,3.2-0.3,4.6-0.9c1.3,1.6,2.7,2.7,2.8,2.7c0.2,0.1,0.4,0.2,0.6,0.2 s0.4-0.1,0.6-0.2c0.2-0.2,5.4-4.1,5.4-8.9C30,17.6,27.3,15,24,15z M24,22.8c-1.1,0-2-0.9-2-2s0.9-2,2-2s2,0.9,2,2S25.1,22.8,24,22.8 z"/> </g>
</svg>