<!DOCTYPE svg PUBLIC "-//W3C//DTD SVG 1.1//EN" "http://www.w3.org/Graphics/SVG/1.1/DTD/svg11.dtd">
<!-- Uploaded to: SVG Repo, www.svgrepo.com, Transformed by: SVG Repo Mixer Tools -->
<svg fill="#ffffff" version="1.1" id="Capa_1" xmlns="http://www.w3.org/2000/svg" xmlns:xlink="http://www.w3.org/1999/xlink" width="800px" height="800px" viewBox="0 0 576.306 576.306" xml:space="preserve">
<g id="SVGRepo_bgCarrier" stroke-width="0"/>
<g id="SVGRepo_tracerCarrier" stroke-linecap="round" stroke-linejoin="round"/>
<g id="SVGRepo_iconCarrier"> <g> <g> <path d="M423.687,364.648h-2.936h-9.562v29.032v45.661c3.099-1.263,6.312-2.143,9.562-2.851v-44.321 c17.299-4.381,31.202-17.193,37.083-33.843c-6.751-2.944-12.995-6.817-18.57-11.484 C437.849,355.296,433.622,364.648,423.687,364.648z"/> <path d="M392.063,391.528v41.826c3.404,2.104,6.608,4.542,9.562,7.287v-47.153v-38.403h-7.105c-0.928,0-1.673-0.143-2.458-0.258 c-3.959-0.563-6.311-2.333-7.554-3.921c-2.534-3.242-2.266-7.095-2.008-8.702v-15.807c0-2.639,2.142-4.781,4.781-4.781 c2.639,0,4.781,2.143,4.781,4.781l-0.144,17.652c-0.067,0.373-0.019,1.473,0.134,1.473h0.011c0.114,0,0.794,0,2.467,0h7.095 v-19.125c0-0.66,0.134-1.291,0.373-1.865c0.727-1.712,2.419-2.917,4.408-2.917c2.639,0,4.781,2.143,4.781,4.781v28.688h9.562 h2.936c5.433,0,6.628-12.029,6.628-15.013v-2.113c-3.836-4.456-7.162-9.343-9.897-14.592c-0.975-1.874-1.913-3.776-2.735-5.737 c-3.814-9.094-5.929-19.067-5.929-29.519c0-0.201,0.029-0.402,0.029-0.602c-1.367-0.105-2.735-0.21-4.121-0.21 c-29.424,0-53.282,23.857-53.282,53.281C354.368,364.581,370.242,384.863,392.063,391.528z"/> <path d="M155.765,458.217c11.131-13.312,27.731-20.731,45.651-20.731c10.165,0,19.718,2.677,28.085,7.344V77.773H124.314v359.254 C136.764,440.574,147.789,448.081,155.765,458.217z M153.001,383.773h9.562v19.125h-9.562V383.773z M153.001,355.085h9.562v19.125 h-9.562V355.085z M153.001,326.398h9.562v19.125h-9.562V326.398z M153.001,297.71h9.562v19.125h-9.562V297.71z M153.001,269.023 h9.562v19.125h-9.562V269.023z M153.001,240.335h9.562v19.125h-9.562V240.335z M153.001,211.648h9.562v19.125h-9.562V211.648z M153.001,182.961h9.562v19.125h-9.562V182.961z M153.001,154.273h9.562v19.125h-9.562V154.273z M200.813,173.398h-9.562v-19.125 h9.562V173.398z M200.813,202.085h-9.562V182.96h9.562V202.085z M200.813,230.773h-9.562v-19.125h9.562V230.773z M200.813,259.461 h-9.562v-19.125h9.562V259.461z M200.813,288.148h-9.562v-19.125h9.562V288.148z M200.813,316.835h-9.562V297.71h9.562V316.835z M200.813,345.523h-9.562v-19.125h9.562V345.523z M200.813,374.21h-9.562v-19.125h9.562V374.21z M200.813,402.898h-9.562v-19.125 h9.562V402.898z M172.126,383.773h9.562v19.125h-9.562V383.773z M172.126,355.085h9.562v19.125h-9.562V355.085z M172.126,326.398 h9.562v19.125h-9.562V326.398z M172.126,297.71h9.562v19.125h-9.562V297.71z M172.126,269.023h9.562v19.125h-9.562V269.023z M172.126,240.335h9.562v19.125h-9.562V240.335z M172.126,211.648h9.562v19.125h-9.562V211.648z M172.126,182.961h9.562v19.125 h-9.562V182.961z M181.688,173.398h-9.562v-19.125h9.562V173.398z M200.813,116.023v28.688h-9.562v-28.688H200.813z M181.688,116.023v28.688h-9.562v-28.688H181.688z M153.001,116.023h9.562v28.688h-9.562V116.023z"/> <path d="M51.791,484.629c0-14.976,5.996-26.642,15.147-34.941c2.897-2.63,6.11-4.915,9.562-6.847 c1.061-0.594,2.132-1.157,3.232-1.693H76.5v-19.125h19.125v13.952c4.236-0.803,8.549-1.253,12.862-1.253 c2.113,0,4.198,0.152,6.263,0.383V288.148H0v210.375h52.957l-0.096-0.679C52.126,493.818,51.791,487.995,51.791,484.629z M19.126,393.335h19.125v19.125H19.126V393.335z M19.126,364.648h19.125v19.125H19.126V364.648z M19.126,335.96h19.125v19.125 H19.126V335.96z M66.938,355.085H47.813V335.96h19.125V355.085z M66.938,383.773H47.813v-19.125h19.125V383.773z M47.814,393.335 h19.125v19.125H47.814V393.335z M95.626,412.46H76.501v-19.125h19.125V412.46z M95.626,383.773H76.501v-19.125h19.125V383.773z M95.626,355.085H76.501V335.96h19.125V355.085z M95.626,326.398H76.501v-19.125h19.125V326.398z M66.938,326.398H47.813v-19.125 h19.125V326.398z M19.126,307.273h19.125v19.125H19.126V307.273z M19.126,422.023h19.125v19.125H19.126V422.023z M47.814,422.023 h19.125v19.125H47.814V422.023z"/> <path d="M260.732,495.731l0.096,2.792h40.755l-0.096-0.679c-0.736-4.026-1.071-9.85-1.071-13.216 c0-23.925,14.038-44.579,34.271-54.324V230.773h-95.625v220.693C251.696,462.186,259.996,478.069,260.732,495.731z M315.563,374.21h-9.562v-9.562h9.562V374.21z M277.313,364.648h19.125v9.562h-19.125V364.648z M277.313,335.96h19.125v19.125 h-19.125V335.96z M277.313,307.273h19.125v19.125h-19.125V307.273z M277.313,278.585h19.125v19.125h-19.125V278.585z M315.563,297.71h-9.562v-19.125h9.562V297.71z M315.563,326.398h-9.562v-19.125h9.562V326.398z M315.563,355.085h-9.562V335.96 h9.562V355.085z M315.563,269.023h-9.562v-19.125h9.562V269.023z M296.438,269.023h-19.125v-19.125h19.125V269.023z M258.188,249.898h9.562v19.125h-9.562V249.898z M258.188,278.585h9.562v19.125h-9.562V278.585z M258.188,307.273h9.562v19.125 h-9.562V307.273z M258.188,335.96h9.562v19.125h-9.562V335.96z M258.188,364.648h9.562v9.562h-9.562V364.648z M258.188,383.773 h9.562h9.562h19.125h9.562h9.562v9.562h-57.375v-9.562H258.188z M258.188,402.898h57.375v9.562h-57.375V402.898z M258.188,422.023 h57.375v9.562h-57.375V422.023z"/> <path d="M430.313,321.569c2.678,4.638,5.892,8.922,9.562,12.766c5.776,6.054,12.661,10.997,20.339,14.555 c5.594,2.591,11.609,4.418,17.911,5.384v4.829v4.829v91.14c0.938,1.033,1.893,2.037,2.764,3.136 c2.066-2.477,4.38-4.676,6.799-6.731v-86.818v-4.781v-4.78v-47.822h-9.562h-3.586c-11.398,0-15.539-9.907-15.539-16.562v-21.688 c0-2.639,2.142-4.781,4.781-4.781c2.639,0,4.78,2.142,4.78,4.781v21.688c0.029,1.616,0.536,7,5.978,7h3.586h9.562v-28.688 c0-0.66,0.135-1.291,0.373-1.865c0.728-1.712,2.42-2.917,4.408-2.917c2.64,0,4.781,2.142,4.781,4.781v57.375h9.562h1.692 c2.123,0,3.672-0.602,4.858-1.893c3.06-3.338,3.223-10.356,3.03-12.557l-0.019-23.801c0-2.639,2.142-4.781,4.781-4.781 c2.639,0,4.781,2.143,4.781,4.781v23.39c0.096,0.89,0.869,12.46-5.537,19.441c-3.003,3.261-7.115,4.982-11.896,4.982h-1.693 h-9.562v18.513v4.829v4.829v80.765c3.05-1.673,6.235-3.117,9.562-4.227v-78.316v-4.934v-4.926 c28.019-8.032,48.55-33.783,48.55-64.384c0-37.016-30.007-67.024-67.024-67.024c-37.017,0-67.023,30.007-67.023,67.024 c0,0.354,0.048,0.689,0.048,1.042C421.545,300.952,424.786,311.997,430.313,321.569z"/> <path d="M239.063,498.523h12.116c-0.487-12.517-5.059-23.524-12.116-32.13c-2.83-3.452-5.967-6.579-9.562-9.132 c-7.994-5.681-17.624-9.027-28.085-9.027c-20.588,0-38.25,10.079-45.9,27.865c-5.565-13.799-16.993-24.566-31.202-29.252 c-3.06-1.015-6.273-1.673-9.562-2.085c-2.056-0.259-4.131-0.479-6.263-0.479c-10.94,0-22.864,3.777-31.987,11.121 c-1.826,1.473-3.519,3.108-5.087,4.867c-6.091,6.817-10.06,15.74-10.06,26.746c0,3.117,0.383,1.94,0.918,11.504h52.479h9.562 h105.188L239.063,498.523L239.063,498.523z"/> <path d="M526.541,448.243c-7.028,0-13.665,1.263-19.728,3.509c-3.403,1.263-6.598,2.869-9.562,4.791 c-3.567,2.324-6.799,5.068-9.562,8.301c-2.831,3.309-5.24,7.048-7.049,11.255c-0.717-1.77-1.615-3.443-2.515-5.106 c-8.578-15.864-25.216-26.708-44.513-26.708c-4.485,0-8.75,0.775-12.862,1.903c-3.337,0.908-6.531,2.104-9.562,3.653 c-3.176,1.615-6.235,3.433-9.009,5.642c-0.172-0.239-0.383-0.459-0.555-0.698c-2.725-3.72-5.957-7.027-9.562-9.888 c-8.625-6.847-19.461-11.016-31.327-11.016c-9.534,0-18.428,2.955-26.048,7.898c-14.784,9.582-24.711,26.756-24.711,45.25 c0,3.117,0.384,1.941,0.918,11.504h23.793h147.166h15.396h5.833h73.22C575.195,469.835,553.431,448.243,526.541,448.243z"/> </g> </g> </g>
</svg>